<svg xmlns="http://www.w3.org/2000/svg" width="60.809" height="9.747" viewBox="0 0 60.809 9.747">
  <g id="logo" transform="translate(-0.009 -0.239)">
    <path id="Trazado_1" data-name="Trazado 1" d="M7.105.879A23.1,23.1,0,0,0,1.034,1.892a1.051,1.051,0,0,0-.653.437,1.663,1.663,0,0,0-.208.611A16.208,16.208,0,0,0,.038,6.39,1.729,1.729,0,0,0,.219,7.2a.927.927,0,0,0,.65.376q.536.079,1.074.133L1.864,9.92a.476.476,0,0,0,.18.406.571.571,0,0,0,.311.113.62.62,0,0,0,.6-.319,7.967,7.967,0,0,1,1.6-2.258,50.69,50.69,0,0,0,5.2-.189,1.324,1.324,0,0,0,1.186-.95,14.078,14.078,0,0,0,.435-3.74,1.707,1.707,0,0,0-.495-1.328,2.653,2.653,0,0,0-1.03-.436A13.221,13.221,0,0,0,7.105.879Zm2.612.84a2.384,2.384,0,0,1,.84.339,1.07,1.07,0,0,1,.3.933,14.2,14.2,0,0,1-.392,3.518.858.858,0,0,1-.763.649,49.129,49.129,0,0,1-5.256.188.262.262,0,0,0-.194.077A8.61,8.61,0,0,0,2.5,9.878a.1.1,0,0,1-.08.044.038.038,0,0,1-.036-.038l.08-2.394a.268.268,0,0,0-.23-.266Q1.59,7.163.95,7.067C.766,7.039.7,6.988.647,6.913a1.29,1.29,0,0,1-.093-.54A15.869,15.869,0,0,1,.679,3.048,1.5,1.5,0,0,1,.817,2.6a.609.609,0,0,1,.417-.228A22.549,22.549,0,0,1,7.089,1.4a12.776,12.776,0,0,1,2.628.323ZM2.742,3.772a.9.9,0,0,0-.036,1.089.743.743,0,0,0,.5.315.924.924,0,0,0,.642-.218.9.9,0,0,0,.117-1.2A.726.726,0,0,0,3.4,3.448a.84.84,0,0,0-.661.324ZM5.752,3.5a.833.833,0,0,0-.638.408.856.856,0,0,0-.121.824.808.808,0,0,0,1.421-.016.792.792,0,0,0,0-.776.758.758,0,0,0-.541-.432A.633.633,0,0,0,5.752,3.5Zm2.443.053a.931.931,0,0,0-.258.028.81.81,0,0,0-.574.872.857.857,0,0,0,.307.586A.879.879,0,0,0,8.4,5.2a.786.786,0,0,0,.59-.577A.813.813,0,0,0,8.885,3.9a.881.881,0,0,0-.69-.351Zm-4.813.412a.181.181,0,0,1,.162.093.418.418,0,0,1-.032.509c-.113.1-.184.108-.234.1a.225.225,0,0,1-.145-.105.372.372,0,0,1,.251-.6Zm2.407.057a.42.42,0,0,1,.17.161.262.262,0,0,1,.012.271.313.313,0,0,1-.505.073.485.485,0,0,1,.081-.335.314.314,0,0,1,.242-.17Zm2.681.19a.46.46,0,0,1,.024.275.241.241,0,0,1-.2.206.331.331,0,0,1-.3-.053A.348.348,0,0,1,7.876,4.4c-.023-.234.061-.288.194-.323A.4.4,0,0,1,8.469,4.211Z" transform="translate(0 -0.478)" fill="#ff52c1"/>
    <path id="Trazado_2" data-name="Trazado 2" d="M57.61,1.446a.3.3,0,0,1,.073-.178.222.222,0,0,1,.178-.079h1.732a.3.3,0,0,1,.181.073.224.224,0,0,1,.093.184V4.211h2.9V1.446a.255.255,0,0,1,.262-.257h1.709a.36.36,0,0,1,.2.058.208.208,0,0,1,.088.187v8.16a.237.237,0,0,1-.076.192.3.3,0,0,1-.2.064H63.029a.276.276,0,0,1-.19-.064.243.243,0,0,1-.073-.192V6.282h-2.9V9.595a.236.236,0,0,1-.079.19.318.318,0,0,1-.213.067H57.861q-.245,0-.251-.227ZM73.568,9.752a.362.362,0,0,1-.16.081.793.793,0,0,1-.16.018h-.881a.4.4,0,0,1-.181-.038.389.389,0,0,1-.128-.1.605.605,0,0,1-.087-.146,1.24,1.24,0,0,1-.058-.169l-.181-.747a2.827,2.827,0,0,1-.254.411,2.156,2.156,0,0,1-.423.431,2.352,2.352,0,0,1-.612.339,2.262,2.262,0,0,1-.817.137,2.75,2.75,0,0,1-2.132-.957A3.21,3.21,0,0,1,66.9,7.976a3.745,3.745,0,0,1-.21-1.262V2.893a.507.507,0,0,1,.1-.335.379.379,0,0,1,.306-.114h1.347a.52.52,0,0,1,.344.085.442.442,0,0,1,.093.329v3.8a1.041,1.041,0,0,0,.114.476,1.386,1.386,0,0,0,.3.4,1.438,1.438,0,0,0,.423.271,1.234,1.234,0,0,0,.481.1,1.075,1.075,0,0,0,.435-.1,1.614,1.614,0,0,0,.414-.265,1.418,1.418,0,0,0,.312-.391.977.977,0,0,0,.122-.475V2.875a.55.55,0,0,1,.038-.2.317.317,0,0,1,.114-.152.537.537,0,0,1,.143-.064.615.615,0,0,1,.155-.018h1.318a.467.467,0,0,1,.361.123.469.469,0,0,1,.111.327V9.42a.429.429,0,0,1-.049.2.365.365,0,0,1-.137.146l.035-.017Zm6.772-.805q-.158.158-.347.338a3.432,3.432,0,0,1-.417.338,2.36,2.36,0,0,1-.49.26,1.547,1.547,0,0,1-.566.1,3.549,3.549,0,0,1-1.461-.3,3.5,3.5,0,0,1-1.149-.814,3.746,3.746,0,0,1-.752-1.216,4.124,4.124,0,0,1-.271-1.5,4.117,4.117,0,0,1,.271-1.508,3.756,3.756,0,0,1,.752-1.213,3.461,3.461,0,0,1,1.149-.811,3.581,3.581,0,0,1,1.461-.295,1.758,1.758,0,0,1,.586.093,2.16,2.16,0,0,1,.484.239,2.641,2.641,0,0,1,.4.329q.183.184.347.359V.682a.458.458,0,0,1,.114-.315A.432.432,0,0,1,80.8.239h1.312a.453.453,0,0,1,.16.032.544.544,0,0,1,.155.091.471.471,0,0,1,.113.14.377.377,0,0,1,.044.181V9.4q0,.449-.473.449H80.964a.45.45,0,0,1-.181-.029.287.287,0,0,1-.108-.085A.588.588,0,0,1,80.6,9.6q-.041-.1-.087-.2l-.169-.455ZM76.986,6.153a2.13,2.13,0,0,0,.12.721,1.707,1.707,0,0,0,.341.58,1.62,1.62,0,0,0,.533.388,1.639,1.639,0,0,0,.691.143,1.848,1.848,0,0,0,.7-.134,1.791,1.791,0,0,0,.574-.371,1.846,1.846,0,0,0,.56-1.245V6.153a1.843,1.843,0,0,0-.14-.711,1.885,1.885,0,0,0-.388-.595,1.838,1.838,0,0,0-.583-.405,1.771,1.771,0,0,0-.726-.149,1.586,1.586,0,0,0-.691.149,1.61,1.61,0,0,0-.534.405,1.837,1.837,0,0,0-.341.595,2.119,2.119,0,0,0-.119.711ZM89.352,8.947q-.158.158-.347.338a3.43,3.43,0,0,1-.417.338,2.36,2.36,0,0,1-.49.26,1.548,1.548,0,0,1-.566.1,3.547,3.547,0,0,1-1.461-.3,3.5,3.5,0,0,1-1.149-.814,3.75,3.75,0,0,1-.752-1.216,4.129,4.129,0,0,1-.271-1.5,4.122,4.122,0,0,1,.271-1.508,3.756,3.756,0,0,1,.752-1.213,3.461,3.461,0,0,1,1.149-.811,3.579,3.579,0,0,1,1.461-.295,1.758,1.758,0,0,1,.586.093,2.16,2.16,0,0,1,.484.239,2.641,2.641,0,0,1,.4.329q.184.184.347.359V.682a.458.458,0,0,1,.114-.315.432.432,0,0,1,.341-.128h1.312a.453.453,0,0,1,.16.032.537.537,0,0,1,.155.091.472.472,0,0,1,.114.14.38.38,0,0,1,.044.181V9.4q0,.449-.473.449H89.976a.45.45,0,0,1-.181-.029.287.287,0,0,1-.108-.085.588.588,0,0,1-.079-.14q-.041-.1-.088-.2l-.169-.455ZM86,6.153a2.129,2.129,0,0,0,.12.721,1.715,1.715,0,0,0,.341.58,1.62,1.62,0,0,0,.534.388,1.638,1.638,0,0,0,.691.143,1.848,1.848,0,0,0,.7-.134,1.791,1.791,0,0,0,.575-.371,1.851,1.851,0,0,0,.56-1.245V6.153a1.843,1.843,0,0,0-.14-.711,1.885,1.885,0,0,0-.388-.595,1.838,1.838,0,0,0-.583-.405,1.771,1.771,0,0,0-.726-.149,1.584,1.584,0,0,0-.691.149,1.612,1.612,0,0,0-.534.405,1.837,1.837,0,0,0-.341.595A2.119,2.119,0,0,0,86,6.153ZM93.143.688a.521.521,0,0,1,.093-.315.37.37,0,0,1,.321-.128h1.429a.274.274,0,0,1,.123.032.432.432,0,0,1,.12.091.518.518,0,0,1,.093.14.423.423,0,0,1,.038.181V9.4a.429.429,0,0,1-.126.335.462.462,0,0,1-.324.114H93.557a.4.4,0,0,1-.321-.114.519.519,0,0,1-.093-.335Zm9.822,8.277a3.886,3.886,0,0,1-1.155.738,3.52,3.52,0,0,1-1.359.265,3.97,3.97,0,0,1-2.759-1.1,3.876,3.876,0,0,1-.852-1.216,3.663,3.663,0,0,1-.315-1.522,3.941,3.941,0,0,1,.481-1.9,3.821,3.821,0,0,1,.56-.773,3.543,3.543,0,0,1,.738-.6,3.636,3.636,0,0,1,.887-.391,3.575,3.575,0,0,1,1.009-.14,3.443,3.443,0,0,1,.939.128,3.66,3.66,0,0,1,.855.361,3.715,3.715,0,0,1,.732.56,3.781,3.781,0,0,1,.572.714,3.447,3.447,0,0,1,.371.828,3.165,3.165,0,0,1,.131.907q0,.3-.009.5a.561.561,0,0,1-.09.306.437.437,0,0,1-.271.157,2.634,2.634,0,0,1-.557.044h-4.2a1.453,1.453,0,0,0,.236.624,1.483,1.483,0,0,0,.411.4,1.65,1.65,0,0,0,.5.213,2.091,2.091,0,0,0,.5.064,2.242,2.242,0,0,0,.431-.044,3.091,3.091,0,0,0,.429-.117,2.425,2.425,0,0,0,.379-.169,1.262,1.262,0,0,0,.277-.2,1.21,1.21,0,0,1,.16-.114.285.285,0,0,1,.143-.038.281.281,0,0,1,.155.053,1.219,1.219,0,0,1,.178.152l.618.7a.4.4,0,0,1,.082.137.455.455,0,0,1,.018.125.324.324,0,0,1-.064.2.733.733,0,0,1-.152.149ZM100.16,4.106a1.117,1.117,0,0,0-.44.09,1.662,1.662,0,0,0-.4.242,2.08,2.08,0,0,0-.335.344,2.111,2.111,0,0,0-.242.391h2.98a3.436,3.436,0,0,0-.265-.42,1.8,1.8,0,0,0-.327-.338,1.411,1.411,0,0,0-.42-.227A1.683,1.683,0,0,0,100.16,4.106Z" transform="translate(-42.981)" fill="#00252e"/>
  </g>
</svg>
