<svg xmlns="http://www.w3.org/2000/svg" width="512" height="512" viewBox="0 0 512 512">
  <g id="logo-twitter" transform="translate(-1459 -423)">
    <g id="gorjeo" transform="translate(1459 423)">
      <g id="Grupo_2" data-name="Grupo 2">
        <g id="Grupo_1" data-name="Grupo 1">
          <path id="Trazado_3" data-name="Trazado 3" d="M437.019,74.981A256,256,0,1,0,74.981,437.019,256,256,0,1,0,437.019,74.981ZM256,495.832C123.756,495.832,16.168,388.244,16.168,256S123.756,16.168,256,16.168,495.832,123.756,495.832,256,388.244,495.832,256,495.832Z" fill="#fff"/>
        </g>
      </g>
      <g id="Grupo_4" data-name="Grupo 4">
        <g id="Grupo_3" data-name="Grupo 3">
          <path id="Trazado_4" data-name="Trazado 4" d="M436.352,162.391a8.294,8.294,0,0,0-8.875-1.11,125.667,125.667,0,0,1-12.806,5.107,73.664,73.664,0,0,0,10.188-19.432,8.39,8.39,0,0,0-1.569-8.427,8.088,8.088,0,0,0-9.963-1.56A116.38,116.38,0,0,1,375.4,150.587,80.931,80.931,0,0,0,240.1,203.412c-8.741-1.364-25.844-6.241-29.933-7.578A181.5,181.5,0,0,1,133.1,144.527a8.38,8.38,0,0,0-4.7-2.764,8.1,8.1,0,0,0-8.745,4.339,74.642,74.642,0,0,0,6.3,76.915,8.1,8.1,0,0,0-7.812,2.89,8.334,8.334,0,0,0-1.77,4.966c-.03.82-.057,1.643-.057,2.472a69.813,69.813,0,0,0,26.136,54.588,8.125,8.125,0,0,0-2.7,3.082,8.27,8.27,0,0,0-.434,6.178,71.653,71.653,0,0,0,46.292,46.781,126.466,126.466,0,0,1-65.679,18.434c-2.053,0-4.166-.053-6.279-.156A8.1,8.1,0,0,0,105.284,369a8.308,8.308,0,0,0,4.087,8.423,194.071,194.071,0,0,0,212-9.933,8.157,8.157,0,0,0,.959-12.362l0,0a8.183,8.183,0,0,0-10.605-.793,177.494,177.494,0,0,1-167.214,22.1,142.553,142.553,0,0,0,66.409-30.712,8.313,8.313,0,0,0,2.947-7.911,8.086,8.086,0,0,0-7.707-6.535,55.5,55.5,0,0,1-46.7-28.06,77.331,77.331,0,0,0,13.44-1.841,8.364,8.364,0,0,0,6.559-6.913,8.086,8.086,0,0,0-6.085-8.9,53.623,53.623,0,0,1-40.14-43.256,73.794,73.794,0,0,0,19.047,1.9,8.088,8.088,0,0,0,7.792-7.166,8.335,8.335,0,0,0-4.07-7.966,58.365,58.365,0,0,1-26.126-64.448,197.584,197.584,0,0,0,75.086,46.518c.258.088,28.093,8.754,38.636,8.8.688.017,3.975.162,3.98.162a8.087,8.087,0,0,0,8.43-8.4c-.011-.471-.023-.942-.023-1.416a64.758,64.758,0,0,1,110.927-45.42,7.991,7.991,0,0,0,6.793,2.349,133.152,133.152,0,0,0,24.037-5.632,57.858,57.858,0,0,1-14.5,11.5,8.116,8.116,0,0,0-3.518,10.415l.119.264a8.087,8.087,0,0,0,8.136,4.72,142.821,142.821,0,0,0,19.753-3.291,130.549,130.549,0,0,1-18.849,16.051,8.044,8.044,0,0,0-3.416,6.865l.017.511c.019.553.04,1.107.04,1.664v.731a177,177,0,0,1-45.668,117.994,8.157,8.157,0,0,0,12.2,10.831,192.545,192.545,0,0,0,49.633-127.9,145.7,145.7,0,0,0,36.227-39.093A8.084,8.084,0,0,0,436.352,162.391Z" fill="#fff"/>
        </g>
      </g>
    </g>
  </g>
</svg>
