<svg xmlns="http://www.w3.org/2000/svg" width="480" height="480" viewBox="0 0 480 480">
  <g id="logo-instagram" transform="translate(-1152 -143)">
    <g id="instagram" transform="translate(1152 143)">
      <path id="Trazado_5" data-name="Trazado 5" d="M240,0C107.453,0,0,107.453,0,240S107.453,480,240,480,480,372.547,480,240C479.852,107.516,372.484.148,240,0Zm0,464C116.289,464,16,363.711,16,240S116.289,16,240,16,464,116.289,464,240C463.859,363.652,363.652,463.859,240,464Zm0,0" fill="#fff"/>
      <path id="Trazado_6" data-name="Trazado 6" d="M344,96H136a40.047,40.047,0,0,0-40,40V344a40.047,40.047,0,0,0,40,40H344a40.047,40.047,0,0,0,40-40V136A40.047,40.047,0,0,0,344,96Zm24,248a24,24,0,0,1-24,24H136a24,24,0,0,1-24-24V136a24,24,0,0,1,24-24H344a24,24,0,0,1,24,24Zm0,0" fill="#fff"/>
      <path id="Trazado_7" data-name="Trazado 7" d="M240,160a80,80,0,1,0,80,80A80,80,0,0,0,240,160Zm0,144a64,64,0,1,1,64-64A64,64,0,0,1,240,304Zm0,0" fill="#fff"/>
      <path id="Trazado_8" data-name="Trazado 8" d="M328,128a24,24,0,1,0,24,24A24,24,0,0,0,328,128Zm0,32a8,8,0,1,1,8-8A8,8,0,0,1,328,160Zm0,0" fill="#fff"/>
    </g>
  </g>
</svg>
