<svg xmlns="http://www.w3.org/2000/svg" width="512" height="512" viewBox="0 0 512 512">
  <g id="logo-face" transform="translate(-633 -614)">
    <g id="logo-de-facebook" transform="translate(633 614)">
      <path id="Trazado_1" data-name="Trazado 1" d="M437.02,74.98A256,256,0,0,0,74.98,437.02,256,256,0,0,0,437.02,74.98ZM426.413,426.413A239.3,239.3,0,0,1,303.581,492.33v-164.7h34.338a15.494,15.494,0,0,0,15.053-11.753L365,267.779A15.517,15.517,0,0,0,349.944,248.5H296.082a7.5,7.5,0,0,0,0,15h53.862a.517.517,0,0,1,.5.642l-12.024,48.1a.517.517,0,0,1-.5.391H296.082a7.5,7.5,0,0,0-7.5,7.5V494.814A245,245,0,0,1,256,497,241,241,0,0,1,85.587,85.587,241,241,0,0,1,426.413,426.413Z" fill="#fff"/>
      <path id="Trazado_2" data-name="Trazado 2" d="M352.193,96.193H304.1a95.786,95.786,0,0,0-95.677,95.678V248.5H159.806a15.533,15.533,0,0,0-15.516,15.516v48.1a15.533,15.533,0,0,0,15.516,15.516h48.613V464.42a7.5,7.5,0,0,0,15,0V320.129a7.5,7.5,0,0,0-7.5-7.5H159.806a.516.516,0,0,1-.516-.516v-48.1a.516.516,0,0,1,.516-.516h56.113a7.5,7.5,0,0,0,7.5-7.5V191.871A80.769,80.769,0,0,1,304.1,111.193h48.1a.516.516,0,0,1,.516.516v48.1a.516.516,0,0,1-.516.516H320.129a31.583,31.583,0,0,0-31.548,31.548v32.064a7.5,7.5,0,0,0,15,0V191.87a16.566,16.566,0,0,1,16.548-16.548h32.064a15.533,15.533,0,0,0,15.516-15.516v-48.1A15.534,15.534,0,0,0,352.193,96.193Z" fill="#fff"/>
    </g>
  </g>
</svg>
